<svg id="Laag_1" data-name="Laag 1" xmlns="http://www.w3.org/2000/svg" viewBox="0 0 265.52 239.4"><defs><style>.cls-1{fill:#fff;}</style></defs><title>duim</title><path class="cls-1" d="M238.66,194.61c3,11.39,6.08,22,8.62,32.83,2.37,10,4.29,20.15,6.16,30.28a36.17,36.17,0,0,1,.29,9c-.31,4.44-.25,9.44-5.42,11.38-4.52,1.69-7.81-1.56-10.28-4.46-8.5-10-17.17-20-24.71-30.67-10.14-14.42-19.12-29.66-29-44.29-2.91-4.3-6.91-8-10.81-11.48s-8.52-6.38-12.57-9.83c-7.26-6.19-11.52-13.68-11.68-23.72-.41-25.64-1.29-51.27-2.2-76.89-.24-6.78,2.62-10.42,8.72-13.3,9.72-4.58,18.62-10.94,28.43-15.26a87.09,87.09,0,0,1,24.24-6.84c32.06-3.86,64.17-2,96.22.83,10.53.93,15,5.82,15.38,16.49.18,5.41,1.46,10.15,5.47,14,2.6,2.48,2.76,5.33,1.66,8.69-4.26,12.94-3.15,25.47,2.76,37.8a89.45,89.45,0,0,1,5.22,15.53,18.61,18.61,0,0,1-2.9,16.13c-1.81,2.64-2.73,6-3.66,9.11-2,6.68-3.37,13.53-5.55,20.14-4.2,12.78-14.23,18.66-26.75,18.54-16.75-.16-33.48-2.05-50.22-3.21C243.84,195.23,241.58,194.94,238.66,194.61Z" transform="translate(-70.35 -39.17)"/><path class="cls-1" d="M134,176.52l-63.64,5.09V66h61.23C132.39,103.17,133.18,139.54,134,176.52Z" transform="translate(-70.35 -39.17)"/></svg>