<svg id="Laag_1" data-name="Laag 1" xmlns="http://www.w3.org/2000/svg" viewBox="0 0 296.34 239.81"><defs><style>.cls-1{fill:#fff;}</style></defs><title>handen</title><path class="cls-1" d="M172.48,234.9c3.92-8.48,4.08-16.39-2.3-22.39-5.94-5.59-13-4.51-19.74.56,2.23-7,6.58-13.33,2.63-20.39-4.06-7.25-11-7.75-18.78-6.52v-6.37c-.06-8.41-6.46-14.61-14.85-13.83-3.75.34-7.37,1.95-11.11,2.61-1.47.26-3.77.07-4.59-.87q-26.25-30.16-52.2-60.57a6.26,6.26,0,0,1-.54-1.52l62-54.3L152.75,95c-5.2,13.72-10.85,28.45-16.36,43.23-2.28,6.11-1.94,7.45,4.37,8.85a184.27,184.27,0,0,0,23.51,3.22c4.76.43,8.17-2.33,10.36-6.51,1.08-2.06,2.08-4.17,3.22-6.2,2.91-5.23,5.57-10.63,8.89-15.59,5.77-8.64,7.25-8.76,15.45-2.84,27.46,19.82,53.83,41,78,64.71a71.29,71.29,0,0,1,10.1,12.29c3.66,5.71,1.88,10.08-4.34,12.79-7.23,3.15-12.16,2.43-17.67-3.26-8.11-8.38-16-17-23.92-25.52-.8-.85-1.41-2.14-2.38-2.5a17.25,17.25,0,0,0-4.53-.5c0,1.51-.32,3.13.12,4.51.37,1.17,1.6,2.07,2.49,3.07q14.16,15.84,28.33,31.66c4,4.52,6.73,9.49,5.55,15.86-1.21,6.54-6.68,9.61-12.63,6.67a27,27,0,0,1-7.17-5.29c-10.28-10.45-20.41-21.06-30.58-31.61-.81-.84-1.44-2.19-2.4-2.47a20.43,20.43,0,0,0-5-.26,19.47,19.47,0,0,0,.26,4.51c.3,1,1.38,1.85,2.15,2.72L247,238.76c3.29,3.73,5.36,7.91,2.8,12.72-2.38,4.46-6.74,6.06-11.48,5.22a14.39,14.39,0,0,1-6.75-3.74c-11-10.2-21.79-20.6-32.71-30.89-1.67-1.58-3.3-4.57-6.1-1.73-2.57,2.6.27,4.15,1.67,5.76,8.36,9.51,16.81,18.94,25.16,28.45a34.44,34.44,0,0,1,4.13,5.62c3,5.27,2.56,10.86-.85,14.42a10.21,10.21,0,0,1-13.33,1.55c-6.55-4.12-12.33-9.48-18.3-14.46-.57-.47-.46-2.06-.27-3.06.33-1.79,1.05-3.5,1.46-5.28C195.85,239,187.7,230.91,172.48,234.9Z" transform="translate(-51 -38.12)"/><path class="cls-1" d="M298.7,38.12c16.67,20.36,32.55,39.77,48.64,59.41-10.48,11.29-20.6,22.32-30.87,33.2-3.49,3.7-5.82,7.26-6.18,12.9s-2.93,11.22-5.56,16.31c-3.17,6.14-7.42,11.72-11.52,18-3.27-2.72-5.86-5-8.57-7.11Q249,143,213.34,115.36c-3.12-2.39-7-3.82-10.49-5.7-6-3.24-11.74-2-15.85,2.79-4.75,5.48-8.52,11.81-12.53,17.9a49.15,49.15,0,0,0-4.37,8.39c-1.79,4.4-5.3,6.06-9.49,5.7-6-.51-12-1.73-18.7-2.74.76-2.47,1.11-4,1.71-5.48,7.89-19,15.56-38.17,23.8-57.06,6.6-15.14,15.12-20,31.75-18.74a41.08,41.08,0,0,1,12.08,2.68q21.28,8.57,42.27,17.82c3.31,1.46,5.36,1.08,7.76-1.57,11.42-12.57,23-25,34.53-37.48C296.7,40.93,297.42,39.8,298.7,38.12Z" transform="translate(-51 -38.12)"/><path class="cls-1" d="M108.41,239.92c-5.33-.93-7.72-3.8-7-9.1,1.29-9.52,4.73-18.39,12.29-24.33,6.8-5.35,14.67-9.43,22.36-13.53,3.46-1.85,8.35-1.89,10.33,1.8,1.41,2.63,1.17,7.3-.24,10.09-6.06,12-14,22.68-25.59,29.9C116.91,237.05,112.48,238.23,108.41,239.92Z" transform="translate(-51 -38.12)"/><path class="cls-1" d="M81.26,208a30.34,30.34,0,0,1,9.65-20.74c7.84-7.32,16.92-12.81,27.82-14.5,5.7-.88,9.64,2.31,9.07,8a21.41,21.41,0,0,1-3.2,9.75c-8.39,12.19-19.8,20.43-34.28,24C84.47,215.92,81.2,213.34,81.26,208Z" transform="translate(-51 -38.12)"/><path class="cls-1" d="M125.91,243.75a15.63,15.63,0,0,1,7.92-14.16c8.06-4.93,16.45-9.37,24.92-13.56,4.67-2.31,10.2,1.62,9.87,7.53-.24,4.22-1.56,9.42-4.35,12.25a159.79,159.79,0,0,1-23.41,19.89C133.74,260.53,125.83,253.79,125.91,243.75Z" transform="translate(-51 -38.12)"/><path class="cls-1" d="M150,266.55c.4-5.24,2.13-11.08,7.37-14.7a133,133,0,0,1,18.81-11c6.64-3.12,10.9.19,10.6,7.74-.35,8.73-4.94,15.59-11.48,20.67a41.88,41.88,0,0,1-14.9,7.38C153.2,278.4,149.85,274.93,150,266.55Z" transform="translate(-51 -38.12)"/></svg>