<svg id="Laag_1" data-name="Laag 1" xmlns="http://www.w3.org/2000/svg" viewBox="0 0 223.4 239.22"><defs><style>.cls-1{fill:#fff;}</style></defs><title>lamp</title><path class="cls-1" d="M151.94,224c-.31-3.35-.57-7-1-10.61a62.36,62.36,0,0,0-9-25.14,116.1,116.1,0,0,1-16.6-50.7C123,111.1,138.65,92.13,166,89.4c10.47-1,21.47-1.53,31.67.5,21.26,4.24,31.17,19.94,35.18,40,2.67,13.35,1,26.07-5.82,38.08-4.76,8.39-9.77,16.74-13.35,25.64-3.5,8.68-5.24,18.07-8,27.07-.39,1.32-2,3.2-3.09,3.22C186,224.1,169.33,224,151.94,224Z" transform="translate(-73.29 -36.54)"/><path class="cls-1" d="M157.53,240c12.45,0,24.9-.14,37.34.19,1.6,0,3.62,2.27,4.62,4,4.91,8.36,2.07,16.83-6.67,21.06-1.36.66-3,1.77-3.48,3.06-2.06,5.17-5.83,7.72-11.18,7.43-5.67-.32-10.53-2.72-12.22-8.54-.91-3.12-3-3.51-5.33-4.18-7.91-2.24-9.8-6.35-6.42-13.83,1.15-2.55,2.24-5.12,3.37-7.69Z" transform="translate(-73.29 -36.54)"/><path class="cls-1" d="M217.64,79.13,210,73.27l19.1-34.68,8.49,4.33C231,55,224.53,66.67,217.64,79.13Z" transform="translate(-73.29 -36.54)"/><path class="cls-1" d="M288.31,188.69v7.65c-15-1.92-26.58-10.44-39.51-16.9l3.73-7.77Z" transform="translate(-73.29 -36.54)"/><path class="cls-1" d="M98,227.68l23.92-29.89,7.11,5.58-23.46,30.34Z" transform="translate(-73.29 -36.54)"/><path class="cls-1" d="M235,193.85c11.54,7.57,22.37,14.93,29.66,26.36-6.81,4.51-7.53,4.34-12.87-1.05a125.35,125.35,0,0,0-10-9c-3.48-2.82-7.22-5.33-11.47-8.43Z" transform="translate(-73.29 -36.54)"/><path class="cls-1" d="M128,42.84,145,74l-8,5.46L118.89,45.43Z" transform="translate(-73.29 -36.54)"/><path class="cls-1" d="M295.53,141.3c-11.55.44-23.1.85-34.64,1.35-3.42.14-3.21-2.19-3.09-4.33s-1.09-5.27,3.09-5.38c9.94-.28,19.9-1.12,29.8-.73,2.08.08,4,4.45,6,6.85Z" transform="translate(-73.29 -36.54)"/><path class="cls-1" d="M267.26,75.37l7.82,7.07L247,109.51c-1.32-2.44-1.88-3.63-2.58-4.72-2.17-3.4-1.17-5.25,1.94-8C253.63,90.28,260.07,82.86,267.26,75.37Z" transform="translate(-73.29 -36.54)"/><path class="cls-1" d="M185.35,36.59c-1,12.37-2.06,24.5-3.11,37l-9.29-1c1.05-12,2.08-23.87,3.14-36.05Z" transform="translate(-73.29 -36.54)"/><path class="cls-1" d="M82.31,84.67l4.4-8,30.82,23.2c-7.66,6.26-7.51,6.09-14.11.77S89.69,90.22,82.31,84.67Z" transform="translate(-73.29 -36.54)"/><path class="cls-1" d="M107.08,126.59c.38,3,.73,5.69,1.18,9.18l-34,3.93c-.4-.62-.71-.88-.73-1.16-.61-7.71-.61-7.74,6.87-8.69C89.07,128.79,97.76,127.75,107.08,126.59Z" transform="translate(-73.29 -36.54)"/><path class="cls-1" d="M79.36,185v-9.41l28.81-4.37v9.37Z" transform="translate(-73.29 -36.54)"/></svg>