<svg id="Laag_1" data-name="Laag 1" xmlns="http://www.w3.org/2000/svg" viewBox="0 0 383 280"><defs><style>.cls-1{fill:#fff;}.cls-2{fill:#61a533;}</style></defs><title>mannekes</title><path class="cls-1" d="M21.1,343.16v-280h383v280Zm35.56-29.73c4.57.47,8.51,1.08,12.46,1.24,26.76,1.07,53.54,1.74,80.29,3.14,23.38,1.22,46.73,3.17,70.08,4.91,3.75.28,5.52-.52,5.29-4.79-.57-10.8-.59-21.62-1.16-32.42a102.73,102.73,0,0,0-2.06-17.26c-5.5-24.23-26.19-43.26-53-42.83-15.82.26-31.65.17-47.48.14a50.36,50.36,0,0,0-29.45,9.36c-16.71,11.6-26.48,28-31,47.35C58.36,292.21,58,302.59,56.66,313.43ZM298,215.83c17.94.11,34.81-7.33,45.7-19.8,21.72-24.88,20.8-57.42,5.07-84-12.08-20.38-40.46-26.3-61.14-20.72-28.71,7.74-45.6,27.78-52,56.23-4.93,22,1.46,41,19.87,54.78C268,211.68,282.4,215.81,298,215.83ZM134.9,213c2.27-.31,5.12-.12,7.47-1.11,12.36-5.19,25.1-9.79,36.78-16.26,23.89-13.24,30.17-43.14,20-65.29-12.32-26.93-33.82-41.95-63.47-44.84-17.93-1.75-32.92,4.36-44,18.44-17,21.64-21.83,58.63-.31,85.26C102.63,203.06,116.26,212,134.9,213Zm181.71,99.84c19.82,0,39.65-.16,59.47.11,5,.07,6-1.82,5.6-6.15-.52-6.13-.87-12.29-1-18.44-.33-23.5-11.46-40.32-31.49-51.88-11.47-6.61-24-8.66-36.93-8.77-14.3-.12-28.6.53-42.91.83-9.52.2-18.22,3.35-26.72,7.3-2.87,1.34-3,2.82-1.78,5.85,3.26,8.12,7.2,16.33,8.35,24.85,1.81,13.45,1.79,27.18,2.09,40.8.1,4.47,1.51,5.63,5.8,5.59C277,312.73,296.78,312.84,316.61,312.84Z" transform="translate(-21.1 -63.16)"/><path class="cls-2" d="M56.66,313.43c1.33-10.84,1.7-21.22,4-31.16,4.48-19.38,14.25-35.75,31-47.35a50.36,50.36,0,0,1,29.45-9.36c15.83,0,31.66.12,47.48-.14,26.82-.43,47.51,18.6,53,42.83a102.73,102.73,0,0,1,2.06,17.26c.57,10.8.59,21.62,1.16,32.42.23,4.27-1.54,5.07-5.29,4.79-23.35-1.74-46.7-3.69-70.08-4.91-26.75-1.4-53.53-2.07-80.29-3.14C65.17,314.51,61.23,313.9,56.66,313.43Z" transform="translate(-21.1 -63.16)"/><path class="cls-2" d="M298,215.83c-15.57,0-30-4.15-42.47-13.48-18.41-13.78-24.8-32.78-19.87-54.78,6.37-28.45,23.26-48.49,52-56.23,20.68-5.58,49.06.34,61.14,20.72,15.73,26.55,16.65,59.09-5.07,84C332.78,208.5,315.91,215.94,298,215.83Z" transform="translate(-21.1 -63.16)"/><path class="cls-2" d="M134.9,213c-18.64-1-32.27-9.94-43.47-23.8-21.52-26.63-16.67-63.62.31-85.26,11.05-14.08,26-20.19,44-18.44,29.65,2.89,51.15,17.91,63.47,44.84,10.14,22.15,3.86,52-20,65.29-11.68,6.47-24.42,11.07-36.78,16.26C140,212.88,137.17,212.69,134.9,213Z" transform="translate(-21.1 -63.16)"/><path class="cls-2" d="M316.61,312.84c-19.83,0-39.65-.11-59.48.09-4.29,0-5.7-1.12-5.8-5.59-.3-13.62-.28-27.35-2.09-40.8-1.15-8.52-5.09-16.73-8.35-24.85-1.21-3-1.09-4.51,1.78-5.85,8.5-4,17.2-7.1,26.72-7.3,14.31-.3,28.61-.95,42.91-.83,12.89.11,25.46,2.16,36.93,8.77,20,11.56,31.16,28.38,31.49,51.88.09,6.15.44,12.31,1,18.44.38,4.33-.64,6.22-5.6,6.15C356.26,312.68,336.43,312.84,316.61,312.84Z" transform="translate(-21.1 -63.16)"/></svg>