<svg id="Laag_1" data-name="Laag 1" xmlns="http://www.w3.org/2000/svg" viewBox="0 0 512.96 191.07"><defs><style>.cls-1{fill:#61a534;}</style></defs><title>OxfamLogo2017</title><path class="cls-1" d="M37.88,209.21C37,157,81.29,113.41,134.24,113.74c50.27.31,97.48,42,95,100-2.19,51.87-46.35,91.12-96.18,91.05C83,304.73,36.93,262.86,37.88,209.21Zm135.44,50c.38-15.57-7.08-26.35-19-35,11.41-8,18.57-18.07,18.9-32.47H153.17c-2.43,9.77-8,16.32-18,17.1-12.12.94-18.48-6.54-21.68-17.11h-20c.67,14.35,8,24.38,19,32.54-11.93,9.05-19.34,19.68-18.74,34.88h19.43c4.41-13.57,9.55-18.82,18.48-19.28,13.43-.68,19.59,7.12,22,19.36Zm.24-71.17c-1.3-15.74-8.17-26.93-21.23-33.65-14.53-7.48-29.11-6.61-42.46,3-10.08,7.24-15.74,17.3-16.35,30.63H113.6c2.8-9.91,8.17-17,18.82-17.45,11.9-.54,18.12,6.68,21,17.49Z" transform="translate(-37.87 -113.74)"/><path class="cls-1" d="M495.06,167.76h13.68c2.1,4.25,4.41,8.83,6.65,13.45s4.34,9.2,6.51,13.8l1.48,0q6.52-13.65,13-27.34h14.4v72.13H538V200.07l-1.9-.48L527.2,217.3h-8.91c-2.88-5.64-5.82-11.38-8.75-17.13l-1.62.15v39.39H495.06Z" transform="translate(-37.87 -113.74)"/><path class="cls-1" d="M321.54,204c0,5.18-.26,10.38,0,15.53.88,14.7-12.39,23.83-26.69,22.29-14.47-1.57-22-11.24-21.29-24.85.55-9.8.17-19.67.08-29.5a20.13,20.13,0,0,1,7.64-16.25c13.22-11.19,36.41-5,39.64,11.12,1.4,7,.24,14.43.24,21.66Zm-13.61-.09c0-4.82.1-9.64,0-14.45-.15-6.12-3.59-9.4-9.77-9.55-6.48-.15-10.57,3.1-10.7,9.18q-.33,14.7,0,29.42c.12,5.91,4.68,9.78,10.6,9.56s9.74-4,9.88-9.71C308,213.55,307.94,208.73,307.93,203.91Z" transform="translate(-37.87 -113.74)"/><path class="cls-1" d="M449.64,167.79H466.7c6.3,23.58,12.71,47.53,19.26,72H472.32c-1.15-3.93-2.26-7.68-3.48-11.83H448.17l-3.89,11.9H430.79C437.08,215.85,443.26,192.18,449.64,167.79Zm15.59,45.89c-2.1-8.16-4-15.49-5.86-22.81l-1.82,0c-1.94,7.41-3.89,14.83-6,22.76Z" transform="translate(-37.87 -113.74)"/><path class="cls-1" d="M344,239.79H328l18.55-36-18.49-35.83h15.78l11,21.31c4-7.92,7.31-14.61,10.76-21.5h15.93l-18.6,36.08,18.62,35.91H365.41l-10.6-21.34Z" transform="translate(-37.87 -113.74)"/><path class="cls-1" d="M406,197.36h21.9V211H405.72v28.66H392.45V167.77h38.76v13.07H406Z" transform="translate(-37.87 -113.74)"/></svg>