<svg id="Laag_1" data-name="Laag 1" xmlns="http://www.w3.org/2000/svg" viewBox="0 0 425 303"><defs><style>.cls-1{fill:#fff;}.cls-2{fill:#61a533;}</style></defs><title>tekstballon</title><path class="cls-1" d="M-4.58,340.8V37.8h425v303Zm331-92.46c-8.94-5.57-12.64-13.78-13.79-23.8-1-8.79-1.31-8.88,7.69-10.27,1.64-.26,3.26-.59,4.89-.9,26.62-5,47.15-17.77,56.35-44.74,4.57-13.4,5.27-27.3,5.55-41.31a26.21,26.21,0,0,0-7.67-19.38,66.75,66.75,0,0,0-8.9-8c-14.87-10.8-31.72-17.4-49.17-22.66-17.71-5.35-35.81-9.1-54.27-9.77-13.24-.49-26.09,2.94-38,9-24.65,12.51-44.4,30.41-58.52,54.29-5.06,8.57-8.83,17.67-7.13,27.89,2.24,13.48,10,23.8,21.36,30.56,10.08,6,20.77,11.71,31.94,14.91,18.13,5.2,36.89,8.18,55.33,12.3a6.3,6.3,0,0,1,4,3.36C283.94,242.85,306.67,249.44,326.37,248.34Zm-84.78-23.41c-4.74-1-8.63-1.84-12.48-2.76-20.16-4.82-40-10.51-56.5-23.9-16.74-13.54-22.58-31.21-19-52,1.48-8.58,4.25-16.93,6.6-26-1.45,0-3.05-.13-4.63,0-6.61.61-13.26,1-19.81,2-17.11,2.65-34.08,5.88-49.44,14.55S60.05,157.74,58.83,175.9a162.73,162.73,0,0,0,1.32,36.18c3.14,19.82,12.73,36.3,30.24,47.32,12.22,7.7,25.82,11.27,40,12.91,2.79.33,4.53,1.16,4.28,4.18-.88,10.24-3.42,19.71-12.33,26.18-1.4,1-2.73,2.14-5,3.95,5-.49,8.86-.69,12.62-1.25,17.86-2.7,32.35-10,39-28.3a6.71,6.71,0,0,1,4.29-3.63c19.71-3.8,37.56-11.32,52.25-25.36C232.24,241.62,237.94,234.4,241.59,224.93Z" transform="translate(4.58 -37.8)"/><path class="cls-2" d="M326.37,248.34c-19.7,1.1-42.43-5.49-50.3-28.55a6.3,6.3,0,0,0-4-3.36c-18.44-4.12-37.2-7.1-55.33-12.3-11.17-3.2-21.86-8.92-31.94-14.91-11.39-6.76-19.12-17.08-21.36-30.56-1.7-10.22,2.07-19.32,7.13-27.89,14.12-23.88,33.87-41.78,58.52-54.29,11.88-6,24.73-9.45,38-9,18.46.67,36.56,4.42,54.27,9.77,17.45,5.26,34.3,11.86,49.17,22.66a66.75,66.75,0,0,1,8.9,8,26.21,26.21,0,0,1,7.67,19.38c-.28,14-1,27.91-5.55,41.31-9.2,27-29.73,39.7-56.35,44.74-1.63.31-3.25.64-4.89.9-9,1.39-8.7,1.48-7.69,10.27C313.73,234.56,317.43,242.77,326.37,248.34Z" transform="translate(4.58 -37.8)"/><path class="cls-2" d="M241.59,224.93c-3.65,9.47-9.35,16.69-16.12,23.15-14.69,14-32.54,21.56-52.25,25.36a6.71,6.71,0,0,0-4.29,3.63c-6.65,18.29-21.14,25.6-39,28.3-3.76.56-7.58.76-12.62,1.25,2.29-1.81,3.62-2.93,5-3.95,8.91-6.47,11.45-15.94,12.33-26.18.25-3-1.49-3.85-4.28-4.18-14.17-1.64-27.77-5.21-40-12.91-17.51-11-27.1-27.5-30.24-47.32a162.73,162.73,0,0,1-1.32-36.18c1.22-18.16,12.16-30.4,27.54-39.08s32.33-11.9,49.44-14.55c6.55-1,13.2-1.42,19.81-2,1.58-.15,3.18,0,4.63,0-2.35,9.1-5.12,17.45-6.6,26-3.62,20.81,2.22,38.48,19,52,16.54,13.39,36.34,19.08,56.5,23.9C233,223.09,236.85,223.89,241.59,224.93Z" transform="translate(4.58 -37.8)"/></svg>