<svg id="Laag_1" data-name="Laag 1" xmlns="http://www.w3.org/2000/svg" viewBox="0 0 351 279"><defs><style>.cls-1{fill:#fff;}.cls-2{fill:#61a533;}</style></defs><title>winkel</title><path class="cls-1" d="M33,358.45v-279H384v279ZM96.21,230.84c.38,6.56.87,12.31,1,18.07.47,19.15.76,38.3,1.21,57.44.23,10.15.76,20.3.9,30.45,0,3.26,1.19,4.38,4.39,4.42,5.33,0,10.64.67,16,.75q44.73.61,89.45,1.1c7.17.09,14.33.25,21.5.33,1.26,0,2.52-.18,4.17-.31v-6.33q0-41,0-82c0-6.84.06-7.12,7-6.67,11.77.77,23.5,2.26,35.27,2.75,5,.22,6.49,1.61,6.45,6.63-.24,26.33-.11,52.66-.11,79,0,6.74,0,6.92,6.94,6.51,7.29-.44,14.55-1.69,21.84-1.81,5.07-.08,6.49-1.79,6.47-6.76-.19-33.66-.1-67.33-.11-101,0-1.43-.14-2.87-.23-4.6-3.33,1.61-6.21,3.25-9.27,4.42-15.34,5.86-29.89-2.69-32.35-18.82-.58-3.76-1.36-7.5-2.25-11.2-4.68-19.53-9.36-39.07-14.22-58.56-.86-3.45.11-4.64,3.47-4.58,4,.07,8,.25,12-.07s6.42,1.27,8.68,4.46c11.36,16,23,31.88,34.39,47.89,4,5.62,6.78,11.7,6.66,18.94a22,22,0,0,0,16.4,21.33c10,2.74,20.26-1.51,25.74-10.7a21.82,21.82,0,0,0-2.92-26.67,61,61,0,0,1-5.11-6.13c-8.72-12-17.58-23.88-26-36.09a75,75,0,0,1-7.89-15.38c-3.65-9.45-6.74-19.12-9.94-28.74-.77-2.34-1.65-3.54-4.49-3.43-21.46.84-42.92,1.49-64.38,2.17q-49.92,1.59-99.83,3.13-23.22.69-46.44,1c-3.1.05-4.6,1.18-5.14,4.1-1,5.39-1.85,10.81-3.19,16.12-1.44,5.73-2.12,12.2-5.3,16.85C76.6,164,65.46,178.58,54.22,193a26.23,26.23,0,0,0-5.88,18c.58,17.08,19.1,27.89,34,19.5,7.53-4.25,11.66-10.72,11.39-19.62-.23-7.6.19-15.18,5.21-21.34,12.51-15.37,25.26-30.55,38-45.76,1.13-1.36,2.68-3.28,4.1-3.35,7.37-.34,14.75-.15,22.94-.15-.94,2.69-1.44,4.39-2.12,6-2.93,7.07-5.87,14.14-8.88,21.17-5.93,13.88-12.11,27.36-10.83,43.4,1.25,15.6-13.16,26.59-28.63,23.53C108.12,233.35,102.8,232.2,96.21,230.84Z" transform="translate(-32.96 -79.45)"/><path class="cls-2" d="M96.21,230.84c6.59,1.36,11.91,2.51,17.25,3.56,15.47,3.06,29.88-7.93,28.63-23.53-1.28-16,4.9-29.52,10.83-43.4,3-7,6-14.1,8.88-21.17.68-1.64,1.18-3.34,2.12-6-8.19,0-15.57-.19-22.94.15-1.42.07-3,2-4.1,3.35-12.72,15.21-25.47,30.39-38,45.76-5,6.16-5.44,13.74-5.21,21.34.27,8.9-3.86,15.37-11.39,19.62-14.86,8.39-33.38-2.42-34-19.5a26.23,26.23,0,0,1,5.88-18c11.24-14.46,22.38-29,32.72-44.15,3.18-4.65,3.86-11.12,5.3-16.85,1.34-5.31,2.2-10.73,3.19-16.12.54-2.92,2-4,5.14-4.1q23.22-.31,46.44-1,49.92-1.49,99.83-3.13c21.46-.68,42.92-1.33,64.38-2.17,2.84-.11,3.72,1.09,4.49,3.43,3.2,9.62,6.29,19.29,9.94,28.74A75,75,0,0,0,333.54,153c8.39,12.21,17.25,24.11,26,36.09a61,61,0,0,0,5.11,6.13,21.82,21.82,0,0,1,2.92,26.67c-5.48,9.19-15.72,13.44-25.74,10.7a22,22,0,0,1-16.4-21.33c.12-7.24-2.65-13.32-6.66-18.94-11.41-16-23-31.86-34.39-47.89-2.26-3.19-4.71-4.77-8.68-4.46s-8,.14-12,.07c-3.36-.06-4.33,1.13-3.47,4.58,4.86,19.49,9.54,39,14.22,58.56.89,3.7,1.67,7.44,2.25,11.2,2.46,16.13,17,24.68,32.35,18.82,3.06-1.17,5.94-2.81,9.27-4.42.09,1.73.23,3.17.23,4.6,0,33.66-.08,67.33.11,101,0,5-1.4,6.68-6.47,6.76-7.29.12-14.55,1.37-21.84,1.81-6.92.41-6.94.23-6.94-6.51,0-26.33-.13-52.66.11-79,0-5-1.42-6.41-6.45-6.63-11.77-.49-23.5-2-35.27-2.75-6.91-.45-7-.17-7,6.67q0,41,0,82v6.33c-1.65.13-2.91.33-4.17.31-7.17-.08-14.33-.24-21.5-.33q-44.71-.56-89.45-1.1c-5.32-.08-10.63-.7-16-.75-3.2,0-4.34-1.16-4.39-4.42-.14-10.15-.67-20.3-.9-30.45-.45-19.14-.74-38.29-1.21-57.44C97.08,243.15,96.59,237.4,96.21,230.84ZM168.39,250c-11.15,0-22.31.07-33.46-.05-3.16,0-4.45,1-4.43,4.28.11,16.32.15,32.64,0,48.95,0,4,1.75,4.84,5.18,4.54,4.63-.4,9.27-.63,13.92-.9,16.91-1,33.82-2.09,50.75-2.82,4-.17,5.11-1.53,5.07-5.32-.16-14.48-.19-29,0-43.45.06-4.26-1.55-5.39-5.56-5.31C189.37,250.16,178.88,250,168.39,250ZM231.61,207c-.27-3.3-.12-6.71-.89-9.9-3.56-14.66-7.32-29.27-11.1-43.87C216.08,139.52,216,139.64,202,140c-3.3.09-4.73,1.39-5.46,4.44-1.8,7.58-4.06,15-5.71,22.66-3.19,14.69-9,28.85-8.4,44.34s15.7,26.89,30.63,22.72C225.51,230.72,231.42,221.94,231.61,207Z" transform="translate(-32.96 -79.45)"/><path class="cls-1" d="M168.39,250c10.49,0,21,.14,31.47-.07,4-.08,5.62,1.05,5.56,5.31-.21,14.48-.18,29,0,43.45,0,3.79-1.07,5.15-5.07,5.32-16.93.73-33.84,1.84-50.75,2.82-4.65.27-9.29.5-13.92.9-3.43.3-5.22-.54-5.18-4.54.17-16.31.13-32.63,0-48.95,0-3.3,1.27-4.31,4.43-4.28C146.08,250.1,157.24,250,168.39,250Z" transform="translate(-32.96 -79.45)"/><path class="cls-1" d="M231.61,207c-.19,15-6.1,23.74-18.52,27.2-14.93,4.17-30.08-7.34-30.63-22.72s5.21-29.65,8.4-44.34c1.65-7.61,3.91-15.08,5.71-22.66.73-3.05,2.16-4.35,5.46-4.44,14-.38,14.05-.5,17.59,13.19,3.78,14.6,7.54,29.21,11.1,43.87C231.49,200.27,231.34,203.68,231.61,207Z" transform="translate(-32.96 -79.45)"/></svg>